# xmcd
#
# Track frame offsets:
#	150
#	20358
#	45632
#	52914
#	56786
#	61602
#	66730
#	72653
#	76694
#	82117
#	105458
#	131482
#	149592
#	158317
#	169277
#	191787
#	210529
#	226836
#	244994
#	250261
#	258043
#	267412
#	282091
#	291817
#	304616
#
# Disc length: 4177 seconds
#
# Revision: 0
# Processed by: cddbd v1.5.2PL0 Copyright (c) Steve Scherf et al.
# Submitted via: EasyCDDAExtractor 2010.6.0.0
#
DISCID=69104f19
DTITLE=Margaret Phillips - Bach/Phillips: Organ Works 4-1
DYEAR=1900
DGENRE=organz
TTITLE0=Prelude and Fugue in C BWV 547: Prelude
TTITLE1=Prelude and Fugue in C BWV 547: Fugue
TTITLE2=Christum wir sollen BWV 696
TTITLE3=Gelobet seist du BWV 697
TTITLE4=Herr Christ der einig BWV 698
TTITLE5=Nun komm der Heiden Heiland BWV 699
TTITLE6=Vom Himmel hoch BWV 701
TTITLE7=Gottes Sohn ist kommen BWV 703
TTITLE8=Lob sei dem allmachtigen Gott BWV 704
TTITLE9=Trio in d BWV 527/1
TTITLE10=Trio in d BWV 527/2
TTITLE11=Trio in d BWV 527/3
TTITLE12=In dulci jubilo BWV 751
TTITLE13=In dulci jubilo BWV 729
TTITLE14=Jesu meine Freude BWV 713
TTITLE15=Concerto in A BWV 593/1
TTITLE16=Concerto in A BWV 593/2
TTITLE17=Concerto in A BWV 593/3
TTITLE18=Vom Himmel hoch BWV 738
TTITLE19=Wir Christenleut BWV 710
TTITLE20=Prelude and Fugue in c BWV 549: Prelude
TTITLE21=Prelude and Fugue in c BWV 549: Fugue
TTITLE22=Allein Gott in der Hoh BWV 716
TTITLE23=Allein Gott in der Hoh BWV 717
TTITLE24=Allein Gott in der Hoh BWV 715
EXTD=
EXTT0=
EXTT1=
EXTT2=
EXTT3=
EXTT4=
EXTT5=
EXTT6=
EXTT7=
EXTT8=
EXTT9=
EXTT10=
EXTT11=
EXTT12=
EXTT13=
EXTT14=
EXTT15=
EXTT16=
EXTT17=
EXTT18=
EXTT19=
EXTT20=
EXTT21=
EXTT22=
EXTT23=
EXTT24=
PLAYORDER=
